Coordinates
version=1
nRows=16
nColumns=36
inDegrees=yes

Units are S.I. units (second, meters, Newtons, ...)
If the header above contains a line with 'inDegrees', this indicates whether rotational values are in degrees (yes) or radians (no).

endheader
time	pelvis_tilt	pelvis_list	pelvis_rotation	pelvis_tx	pelvis_ty	pelvis_tz	hip_flexion_r	hip_adduction_r	hip_rotation_r	knee_angle_r	knee_angle_r_beta	ankle_angle_r	subtalar_angle_r	mtp_angle_r	hip_flexion_l	hip_adduction_l	hip_rotation_l	knee_angle_l	knee_angle_l_beta	ankle_angle_l	subtalar_angle_l	mtp_angle_l	lumbar_extension	lumbar_bending	lumbar_rotation	arm_flex_r	arm_add_r	arm_rot_r	elbow_flex_r	pro_sup_r	arm_flex_l	arm_add_l	arm_rot_l	elbow_flex_l	pro_sup_l
      0.00000000	      0.93937537	      1.20215135	      3.15604414	     -0.05349942	      1.34528716	     -0.08668390	     -4.50274661	     -0.94540880	      1.39408822	      0.67473639	      0.01177637	     10.63431190	     -0.46030599	     -7.07006737	     -3.63500144	      1.70099177	      6.34861271	      2.10016662	      0.03665482	     10.19027251	     -3.93982211	     -7.07006737	     -3.31281341	     -0.73915715	     -0.99888440	     -6.14373611	    -13.09165363	      0.30089743	     21.83287782	     86.96490210	     -6.88037256	    -11.57328225	      4.45431922	     18.85467375	     84.66057940
      0.01666670	      0.53378424	      1.09059173	      3.61792698	     -0.05377802	      1.34438487	     -0.08829858	     -4.36122282	     -0.85990059	      2.87805152	      0.59095722	      0.01031415	     13.16104275	      0.31601054	     -7.40396258	     -3.54075647	      1.58171789	      7.19680670	      1.80057586	      0.03142598	     10.30293852	     -4.44525609	     -7.40396258	     -2.70843298	     -0.57949364	     -1.11152026	     -7.64827767	    -13.01735347	     -0.82148109	     22.32132787	     86.58569283	     -7.69066434	    -10.69549316	      2.01205825	     17.53133107	     84.30544575
      0.03333330	      0.55958217	      0.75993960	      3.77501443	     -0.05532598	      1.34899348	     -0.08882893	     -4.38663566	     -0.36614085	      3.02564305	      0.82322803	      0.01436804	     13.11761159	      0.37760811	     -7.40439761	     -3.89205345	      1.15490583	      7.28990623	      1.15194261	      0.02010519	     10.15686588	     -4.36086565	     -7.40439761	     -2.80301994	     -0.01813461	     -1.39646282	     -8.18788270	    -13.09778330	     -0.87457367	     22.14351211	     86.53646890	     -7.65143965	    -10.24650000	      1.94011445	     17.37331838	     84.24376664
      0.05000000	      0.99394312	      0.77661743	      3.83589626	     -0.05720214	      1.34857963	     -0.08934787	     -4.76699891	     -0.41743403	      2.37808155	      1.09843793	      0.01917136	     13.52913888	      1.14298403	     -7.47962650	     -4.46176658	      1.12972746	      7.15620398	      1.00964616	      0.01762165	      9.89395624	     -4.55964468	     -7.47962650	     -3.51420329	      0.15249483	     -1.38408541	     -8.59170427	    -13.46243249	      1.29328796	     22.97312241	     77.24979937	     -7.12315856	     -9.87578552	      3.03170596	     16.68260386	     75.13958338
      0.06666670	      1.47674561	      0.82910529	      3.58055409	     -0.05905103	      1.34620088	     -0.08965129	     -5.15690650	     -0.45516171	      2.36927062	      1.46252999	      0.02552596	     14.11196325	      1.47864326	     -7.48962206	     -4.94179947	      1.19540745	      6.67888998	      1.02088405	      0.01781779	      9.83648745	     -4.52544587	     -7.48962206	     -4.36436542	      0.25750064	     -1.19679373	     -8.56395347	    -13.43626520	      0.80220661	     23.28296739	     73.34722347	     -6.76327620	     -9.56671876	      2.20694716	     16.84081864	     71.34826430
      0.08333330	      1.99343225	      0.98708130	      3.48858508	     -0.06019420	      1.34720704	     -0.08951108	     -5.68410991	     -0.62396863	      2.35049160	      1.69067884	      0.02950791	     14.48423261	      1.56402617	     -7.49285602	     -5.48837519	      1.35526274	      6.17811583	      0.96166671	      0.01678425	      9.45208976	     -4.41494064	     -7.49285602	     -5.31131347	      0.20632488	     -1.09836458	     -8.53852579	    -13.45817135	      0.59948991	     23.79006189	     72.79775198	     -6.51822599	     -9.53897662	      2.06175233	     17.22537705	     70.76771708
      0.10000000	      2.38679350	      1.14184722	      3.32627938	     -0.06150274	      1.34795064	     -0.08928411	     -6.04360038	     -0.79792981	      2.55412273	      1.82587644	      0.03186756	     14.69226081	      1.52135005	     -7.49518513	     -5.96561589	      1.48599577	      5.82144249	      0.91820635	      0.01602572	      9.22056153	     -4.18223163	     -7.49518513	     -6.10223954	      0.09763142	     -1.09688732	     -8.54524869	    -13.37532360	      0.17347211	     24.61960171	     71.43386066	     -6.50151890	     -9.62559966	      1.94079922	     18.00694884	     69.61449903
      0.11666670	      2.66944325	      1.27402550	      3.20238759	     -0.06208780	      1.34842400	     -0.08904614	     -6.29281299	     -0.93610941	      2.73703245	      1.88825515	      0.03295627	     14.68267309	      1.43633210	     -7.49643163	     -6.28095249	      1.60708900	      5.75474761	      0.90855013	      0.01585719	      8.93189093	     -4.27667045	     -7.49643163	     -6.70830650	     -0.02764172	     -0.94526015	     -8.79724151	    -13.30209314	      0.04050540	     25.03673620	     71.16101080	     -6.13948831	     -9.87031683	      2.23460437	     18.76176031	     69.53662818
      0.13333330	      2.93655397	      1.39879793	      3.15784898	     -0.06309519	      1.34876526	     -0.08885537	     -6.55991523	     -1.06395307	      2.77344263	      1.91442458	      0.03341301	     14.60165734	      1.37458247	     -7.49766560	     -6.61981285	      1.72360612	      5.68303886	      0.90724697	      0.01583445	      8.59353048	     -4.14157474	     -7.49766560	     -7.28809932	     -0.14218270	     -0.93103753	     -8.83394843	    -13.22683587	     -0.13315184	     25.74545465	     70.03981160	     -5.96736894	    -10.15603873	      2.58700734	     19.63288067	     68.77925214
      0.15000000	      3.18458422	      1.52471253	      3.22738223	     -0.06349773	      1.34908992	     -0.08863224	     -6.88987066	     -1.16996222	      2.79123804	      1.83761593	      0.03207245	     14.37359517	      1.19953858	     -7.49911758	     -6.94522850	      1.84345711	      5.78781355	      0.94955270	      0.01657282	      8.27537478	     -4.07871595	     -7.49911758	     -7.86262053	     -0.26472336	     -0.60384106	     -9.34796292	    -13.00428494	     -2.02294615	     26.89846321	     73.67063781	     -5.55486946	    -10.43008622	      2.63051664	     20.16298339	     72.51731149
      0.16666670	      3.32772418	      1.63364893	      3.26747519	     -0.06404249	      1.34576227	     -0.08859932	     -7.11071906	     -1.25087290	      2.85111388	      1.74865159	      0.03051973	     14.12899067	      0.96422599	     -7.49916287	     -7.08527741	      1.94320713	      5.86838313	      1.03703943	      0.01809975	      8.15079011	     -4.10690659	     -7.49916287	     -8.24425584	     -0.44460558	     -0.78279878	     -9.36575771	    -12.93884546	     -2.03149700	     27.52818930	     72.99908839	     -5.67737660	    -10.72495245	      2.68038665	     21.17053787	     72.06692807
      0.18333330	      3.44770048	      1.73594163	      3.42244593	     -0.06426716	      1.34613633	     -0.08843435	     -7.31570684	     -1.32728926	      2.64914076	      1.69104538	      0.02951431	     14.00519498	      1.15368698	     -7.49943360	     -7.23519117	      2.04649760	      6.21421459	      1.10625014	      0.01930771	      7.73610941	     -4.39540196	     -7.49943360	     -8.57726570	     -0.59572665	     -1.17448877	     -9.22644076	    -12.85887468	     -1.80672313	     27.94138463	     71.19119748	     -5.51949050	    -11.02503494	      3.25213719	     21.49062513	     70.60029749
      0.20000000	      3.56698655	      1.82527343	      3.52041405	     -0.06464987	      1.34663756	     -0.08855407	     -7.50805271	     -1.39230949	      2.67485696	      1.55205662	      0.02708850	     13.75701935	      1.06408540	     -7.49961206	     -7.36272725	      2.13989186	      6.51476665	      1.23373172	      0.02153268	      7.57572577	     -4.38422632	     -7.49961206	     -8.90265162	     -0.71501424	     -1.16601522	     -9.26936261	    -13.00278221	     -1.16579428	     28.19409245	     71.77861209	     -4.98898251	    -11.39751033	      4.85454254	     21.33213382	     71.60957031
      0.21666670	      3.63010510	      1.84826022	      3.66163599	     -0.06459979	      1.34695349	     -0.08844520	     -7.62447293	     -1.36124967	      2.67182355	      1.40771343	      0.02456923	     13.53271018	      0.98928573	     -7.49978352	     -7.35511721	      2.13604101	      6.71789910	      1.38475296	      0.02416850	      7.62725150	     -4.36384638	     -7.49978352	     -9.12876741	     -0.81198540	     -1.29887025	     -9.40466642	    -12.84073138	     -0.91415416	     28.20839757	     71.42222179	     -4.45095142	    -11.77978692	      5.94665107	     21.40512317	     71.40977932
      0.23333330	      3.63498321	      1.86951020	      3.79455196	     -0.06491228	      1.34724127	     -0.08855066	     -7.66466412	     -1.36424774	      2.51780065	      1.32071183	      0.02305077	     13.38338979	      1.05812958	     -7.49983315	     -7.34908057	      2.16242055	      7.12187618	      1.50321143	      0.02623599	      7.41867613	     -4.71757264	     -7.49983315	     -9.28861660	     -0.87457010	     -1.54434906	     -9.28033713	    -12.71919994	     -1.37694385	     28.22803461	     71.36593206	     -4.29357692	    -11.95829312	      5.79104117	     21.84177601	     71.36550786
      0.25000000	      3.67468946	      1.87332919	      3.89024867	     -0.06503024	      1.34726569	     -0.08848488	     -7.76014811	     -1.33365503	      2.48828404	      1.19706108	      0.02089266	     13.11959326	      0.99100739	     -7.49993407	     -7.33886435	      2.15101699	      7.25016912	      1.57910232	      0.02756053	      7.44085224	     -4.69212929	     -7.49993407	     -9.53274755	     -0.91440890	     -1.52285897	     -9.65998821	    -12.43700607	     -2.87592287	     28.66658581	     74.52831036	     -4.00187663	    -12.08565270	      5.30924030	     22.10313660	     74.50968980
